<?xml version="1.0" encoding="utf-8"?>
<!-- Generator: Adobe Illustrator 15.0.0, SVG Export Plug-In . SVG Version: 6.00 Build 0)  -->
<!DOCTYPE svg PUBLIC "-//W3C//DTD SVG 1.1//EN" "http://www.w3.org/Graphics/SVG/1.1/DTD/svg11.dtd">
<svg version="1.1" id="图层_1" xmlns="http://www.w3.org/2000/svg" x="0px" y="0px"
	 width="141.73px" height="141.73px" viewBox="0 0 141.73 141.73" enable-background="new 0 0 141.73 141.73" xml:space="preserve">
<g>
	<g>
		<path fill="#FFFFFF" d="M70.124,24.492c-27.013,0-48.989,21.975-48.989,48.987c0,27.015,21.977,48.991,48.989,48.991
			s48.989-21.977,48.989-48.991C119.113,46.467,97.137,24.492,70.124,24.492z"/>
		<path fill="#23BFC6" d="M70.124,21.144c-28.858,0-52.337,23.479-52.337,52.336c0,28.86,23.479,52.338,52.337,52.338
			s52.337-23.478,52.337-52.338C122.461,44.622,98.982,21.144,70.124,21.144z M70.124,122.471
			c-27.013,0-48.989-21.977-48.989-48.991c0-27.013,21.977-48.987,48.989-48.987s48.989,21.975,48.989,48.987
			C119.113,100.494,97.137,122.471,70.124,122.471z"/>
	</g>
	<g>
		<g>
			<polygon fill-rule="evenodd" clip-rule="evenodd" fill="#23BFC6" points="63.486,105.568 67.97,109.396 60.664,112.827 			"/>
		</g>
		<g>
			<path fill="#23BFC6" d="M107.846,72.173l-1.168-1.084c0,0-6.639-6.154-8.755-8.149l-1.169-1.101l1.051-1.215
				c0,0,1.328-1.531,2.494-2.83c0.561-0.625,1.305-0.968,2.1-0.968c1.139,0,1.98,0.703,2.139,0.844
				c0.593,0.538,5.737,5.218,6.705,6.267c1.268,1.174,1.404,3.114,0.236,4.525c-0.236,0.362-1.496,1.626-2.494,2.6L107.846,72.173z
				 M101.394,61.604c1.884,1.761,4.776,4.447,6.383,5.937c0.507-0.515,0.929-0.957,1.044-1.11l0.113-0.154l-0.152-0.07
				c-0.637-0.69-4.021-3.811-6.275-5.859C102.123,60.778,101.732,61.217,101.394,61.604z"/>
		</g>
		<g>
			<path fill="#23BFC6" d="M68.709,108.964l-4.857-4.019l2.922-8.783L96.06,62.513l10.847,10.146l-29.763,33.307L68.709,108.964z
				 M67.75,103.825l1.629,1.347l5.838-2.075l27.014-30.229l-5.924-5.54L69.738,97.856L67.75,103.825z"/>
		</g>
	</g>
	<g>
		<rect x="76.08" y="37.54" fill="#FFFFFF" width="10" height="10"/>
		<path fill="#23BFC6" d="M73.08,34.54v15.063l-6.754,7.938H54.08v14.393l-5.621,6.607H34.08v16h16V81.263l6.571-7.723H70.08V57.757
			l6.141-7.217H89.08v-16H73.08z M86.08,47.54h-10v-10h10V47.54z M67.08,61.282v9.258h-7.877H57.08v-2.133V60.54h6.693h3.307V61.282
			z M37.08,81.54h10v10h-10V81.54z"/>
		<rect x="37.08" y="81.54" fill="#FFFFFF" width="10" height="10"/>
		<polygon fill="#FFFFFF" points="57.08,60.54 57.08,68.407 57.08,70.54 59.203,70.54 67.08,70.54 67.08,61.282 67.08,60.54 
			63.773,60.54 		"/>
	</g>
</g>
</svg>
