<?xml version="1.0" encoding="utf-8"?>
<!-- Generator: Adobe Illustrator 15.0.0, SVG Export Plug-In . SVG Version: 6.00 Build 0)  -->
<!DOCTYPE svg PUBLIC "-//W3C//DTD SVG 1.1//EN" "http://www.w3.org/Graphics/SVG/1.1/DTD/svg11.dtd">
<svg version="1.1" id="图层_1" xmlns="http://www.w3.org/2000/svg" x="0px" y="0px"
	 width="141.73px" height="141.73px" viewBox="0 0 141.73 141.73" enable-background="new 0 0 141.73 141.73" xml:space="preserve">
<path fill="#9FA0A0" d="M71.339,18.974c-28.852,0-52.321,23.473-52.321,52.324s23.471,52.323,52.321,52.323
	c28.852,0,52.321-23.473,52.321-52.323C123.66,42.446,100.189,18.974,71.339,18.974z"/>
<g>
	<g>
		<path fill="#FFFFFF" d="M54.334,57.849h5.016v-4.1c0-13.118,24.088-13.116,24.088,0v4.1h5.012v-4.1c0-19.74-34.114-19.74-34.114,0
			L54.334,57.849L54.334,57.849z"/>
	</g>
	<g>
		<rect x="68.854" y="72.126" fill="#FFFFFF" width="5.01" height="9.705"/>
	</g>
	<g>
		<path fill="#FFFFFF" d="M48.305,60.015v33.928h46.109V60.015H48.305L48.305,60.015z M89.402,65.028V88.93H53.317V65.028H89.402z"
			/>
	</g>
</g>
</svg>
