<?xml version="1.0" encoding="UTF-8"?>
<svg width="32px" height="29px" viewBox="0 0 32 29" version="1.1" xmlns="http://www.w3.org/2000/svg" xmlns:xlink="http://www.w3.org/1999/xlink">
    <title>音频图钉红备份</title>
    <g id="8月14日宣讲后修改" stroke="none" stroke-width="1" fill="none" fill-rule="evenodd">
        <g id="水印样式设置备份" transform="translate(-188, -284)" fill-rule="nonzero">
            <g id="声音图钉" transform="translate(188, 284.2189)">
                <rect id="Rectangle" x="0" y="0" width="32" height="28"></rect>
                <polygon id="Triangle" fill="#E5E5E5" transform="translate(16, 26) rotate(-180) translate(-16, -26)" points="16 24 20 28 12 28"></polygon>
                <g id="编组" fill="#E5E5E5" fill-rule="evenodd">
                    <path d="M4,0 L28,0 A4,4 0 0 1 32,4 L32,20 A4,4 0 0 1 28,24 L4,24 A4,4 0 0 1 0,20 L0,4 A4,4 0 0 1 4,0 Z
					 M22.4364,15.6245181 C22.4364,17.0565356 21.2754356,18.2175 19.8434181,18.2175 L11.59298189,18.2175 C10.16087799,18.2175 9,17.0565356 9,15.6245181 L9,7.37408189 C9,5.94197799 10.16087799,4.7811 11.59298189,4.7811 L19.8434181,4.7811 C21.2754356,4.7811 22.4364,5.94197799 22.4364,7.37408189 L22.4364,8.51343814 L24.7610083,7.06050395 C24.894231,6.97723954 25.0621459,6.97283063 25.1995545,7.04898913 C25.3369632,7.12514764 25.4222186,7.26987606 25.4222186,7.42697872 L25.4222186,15.5715348 C25.4222186,15.7286375 25.3369632,15.8733659 25.1995545,15.9495244 C25.0621459,16.0256829 24.894231,16.021274 24.7610083,15.9380096 L22.4364,14.4850754 L22.4364,15.6245181 Z" id="形状"></path>
                </g>
				<g id="编组" transform="translate(9, 4.7811)" fill="#E5E5E5">
					<path d="M5.34309849,3.87866875 C4.87376876,3.87866875 4.49190896,4.25257674 4.47911692,4.71879488 L4.47877119,4.74299604 L4.47877119,8.69340396 C4.47877119,8.85713664 4.52530434,9.01749769 4.61291479,9.15581906 C4.863829,9.55202669 5.38363544,9.67467474 5.78425114,9.43672543 L5.80560002,9.42358766 L8.92435221,7.44834048 C9.03226343,7.37998937 9.12368326,7.28856954 9.19203437,7.18065832 C9.44294859,6.78445069 9.33170967,6.26205127 8.94526893,6.00171589 L8.92435221,5.98797308 L5.80560002,4.01281234 C5.66727865,3.9252019 5.5069176,3.87866875 5.34318492,3.87866875 L5.34309849,3.87866875 Z" id="形状"></path>
                </g>
            </g>
        </g>
    </g>
</svg>