<?xml version="1.0" encoding="UTF-8"?>
<svg width="400px" height="400px" viewBox="0 0 400 400" version="1.1" xmlns="http://www.w3.org/2000/svg" xmlns:xlink="http://www.w3.org/1999/xlink">
    <title>图片图钉红</title>
    <g id="功能" stroke="none" stroke-width="1" fill="none" fill-rule="evenodd">
        <g id="切图" transform="translate(-252.000000, -1437.000000)" fill-rule="nonzero">
            <g id="图片图钉红备份" transform="translate(252.000000, 1437.000000)">
                <rect id="Rectangle" x="0" y="0" width="400" height="400"></rect>
                <polygon id="Triangle" fill="#E5E5E5" points="100 300 300 300 200 400"></polygon>
                <path d="M363,0 C383.434536,-3.75376332e-15 400,16.5654643 400,37 L400,313 C400,333.434536 383.434536,350 363,350 L37,350 C16.5654643,350 2.50250888e-15,333.434536 0,313 L0,37 C-2.50250888e-15,16.5654643 16.5654643,3.75376332e-15 37,0 L363,0 Z M327.492537,50 L72.5074627,50 C53.9104478,50.0294083 50,53.2643218 50,72.7326197 L50,277.26738 C50,296.35337 53.8208955,300 72.5074627,300 L327.492537,300 C346,300 350,296.52982 350,277.26738 L350,72.7326197 C350,54.0877544 346.477612,50 327.492537,50 Z" id="形状结合" fill="#E5E5E5"></path>
                <g id="zhaopian" transform="translate(83.333333, 101.111111)" fill="#FFFFFF">
                    <path d="M220,148.888889 L0,148.888889 C24.0432461,113.852922 66.7995311,55.4037656 77.6605445,55.4037656 C88.1776736,55.4037656 123.88433,102.621296 140.018236,119.24522 C140.018236,119.24522 160.765924,91.5293676 171.626938,91.5293676 C182.717207,91.5293676 219.627459,148.609495 220,148.888889 Z M155.349746,26.542399 C155.349746,11.8742311 167.213755,0 181.91481,0 C196.615866,0 208.479875,11.8742311 208.479875,26.542399 C208.479875,41.2105669 196.615866,53.0847981 181.91481,53.0847981 C167.242412,53.0847981 155.349746,41.2105669 155.349746,26.542399 Z" id="Shape"></path>
                </g>
            </g>
        </g>
    </g>
</svg>