<?xml version="1.0" encoding="utf-8"?>
<!-- Generator: Adobe Illustrator 15.0.0, SVG Export Plug-In . SVG Version: 6.00 Build 0)  -->
<!DOCTYPE svg PUBLIC "-//W3C//DTD SVG 1.1//EN" "http://www.w3.org/Graphics/SVG/1.1/DTD/svg11.dtd">
<svg version="1.1" id="图层_1" xmlns="http://www.w3.org/2000/svg" x="0px" y="0px"
	 width="141.73px" height="141.73px" viewBox="0 0 141.73 141.73" enable-background="new 0 0 141.73 141.73" xml:space="preserve">
<g>
	<g>
		<path fill="#FFFFFF" d="M72.774,23.923c-27.012,0-48.989,21.977-48.989,48.989c0,27.015,21.977,48.991,48.989,48.991
			c27.013,0,48.989-21.977,48.989-48.991C121.763,45.899,99.787,23.923,72.774,23.923z"/>
		<path fill="#23BFC6" d="M72.774,20.575c-28.859,0-52.337,23.479-52.337,52.337c0,28.86,23.478,52.337,52.337,52.337
			s52.336-23.477,52.336-52.337C125.11,44.054,101.633,20.575,72.774,20.575z M72.774,121.903
			c-27.012,0-48.989-21.977-48.989-48.991c0-27.013,21.977-48.989,48.989-48.989c27.013,0,48.989,21.977,48.989,48.989
			C121.763,99.927,99.787,121.903,72.774,121.903z"/>
	</g>
	<g>
		<g>
			<path fill="#23BFC6" d="M50.358,66.075l1.986-19.541h17.334v2.721H54.845L53.521,61.98c0.899-0.817,1.888-1.445,2.966-1.888
				c1.079-0.441,2.542-0.685,4.389-0.735c3.04-0.05,5.492,0.974,7.355,3.065c1.863,2.09,2.795,4.902,2.795,8.435
				c0,3.611-0.903,6.495-2.708,8.653c-1.809,2.158-4.524,3.236-8.153,3.236c-2.942,0-5.394-0.819-7.355-2.465
				c-1.961-1.641-2.901-4.072-2.819-7.293l0.049-0.146h2.623c0,2.395,0.683,4.228,2.047,5.498c1.366,1.27,3.184,1.907,5.455,1.907
				c2.648,0,4.629-0.801,5.946-2.401c1.315-1.601,1.973-3.918,1.973-6.951c0-2.663-0.658-4.799-1.973-6.402
				c-1.317-1.609-3.159-2.416-5.529-2.416c-2.288,0-4.032,0.366-5.235,1.093c-1.199,0.729-2.071,1.827-2.61,3.297L50.358,66.075z"/>
		</g>
	</g>
	<g>
		<g>
			<polygon fill-rule="evenodd" clip-rule="evenodd" fill="#23BFC6" points="62.137,101.001 66.62,104.829 59.313,108.257 			"/>
		</g>
		<g>
			<path fill="#23BFC6" d="M106.495,67.603l-1.168-1.082c0,0-6.637-6.153-8.755-8.15l-1.169-1.1l1.051-1.215
				c0,0,1.328-1.532,2.495-2.83c0.56-0.625,1.306-0.968,2.1-0.968c1.139,0,1.98,0.701,2.139,0.842
				c0.593,0.539,5.736,5.22,6.704,6.268c1.268,1.175,1.404,3.116,0.236,4.525c-0.236,0.364-1.496,1.626-2.493,2.6L106.495,67.603z
				 M100.044,57.036c1.884,1.761,4.775,4.446,6.382,5.938c0.509-0.516,0.93-0.957,1.044-1.11l0.113-0.155l-0.152-0.072
				c-0.636-0.69-4.02-3.809-6.274-5.857C100.772,56.209,100.384,56.648,100.044,57.036z"/>
		</g>
		<g>
			<path fill="#23BFC6" d="M67.359,104.395l-4.858-4.02l2.923-8.781L94.71,57.944l10.847,10.145l-29.763,33.307L67.359,104.395z
				 M66.401,99.258l1.627,1.345l5.838-2.074l27.014-30.23l-5.924-5.539L68.389,93.286L66.401,99.258z"/>
		</g>
	</g>
</g>
</svg>
