<?xml version="1.0" encoding="utf-8"?>
<!-- Generator: Adobe Illustrator 15.0.0, SVG Export Plug-In . SVG Version: 6.00 Build 0)  -->
<!DOCTYPE svg PUBLIC "-//W3C//DTD SVG 1.1//EN" "http://www.w3.org/Graphics/SVG/1.1/DTD/svg11.dtd">
<svg version="1.1" id="图层_1" xmlns="http://www.w3.org/2000/svg" x="0px" y="0px"
	 width="141.73px" height="141.73px" viewBox="0 0 141.73 141.73" enable-background="new 0 0 141.73 141.73" xml:space="preserve">
<g>
	<g>
		<g>
			<polygon fill="#23BFC6" points="41.256,44.071 57.615,50.288 45.917,56.005 			"/>
		</g>
	</g>
	<!-- <g>
		<g>
			<polygon fill="#23BFC6" points="56.7,86.915 41.076,94.802 44.745,82.31 			"/>
		</g>
	</g> -->
	<g>
		<g>
			<path fill="#23BFC6" d="M70,37.621c-9.985,0-18.888,4.7-24.629,11.999h2.598c5.38-6.123,13.26-9.999,22.031-9.999
				c16.174,0,29.333,13.159,29.333,29.333S86.174,98.287,70,98.287c-7.602,0-14.535-2.907-19.752-7.667h-2.851
				c5.706,5.951,13.726,9.667,22.603,9.667c17.277,0,31.333-14.056,31.333-31.333S87.277,37.621,70,37.621z"/>
		</g>
	</g>
</g>
<g>
	<circle fill="#23BFC6" cx="71.167" cy="69.788" r="15.005"/>
</g>
<g>
	<circle fill="#FFFFFF" cx="71.167" cy="69.788" r="7.502"/>
</g>
</svg>
