<?xml version="1.0" encoding="utf-8"?>
<!-- Generator: Adobe Illustrator 15.0.0, SVG Export Plug-In . SVG Version: 6.00 Build 0)  -->
<!DOCTYPE svg PUBLIC "-//W3C//DTD SVG 1.1//EN" "http://www.w3.org/Graphics/SVG/1.1/DTD/svg11.dtd">
<svg version="1.1" id="图层_1" xmlns="http://www.w3.org/2000/svg" x="0px" y="0px"
	 width="141.73px" height="141.73px" viewBox="0 0 141.73 141.73" enable-background="new 0 0 141.73 141.73" xml:space="preserve">
<g>
	<g>
		<path fill="#FFFFFF" d="M69.718,23.308c-27.013,0-48.989,21.977-48.989,48.991c0,27.013,21.976,48.989,48.989,48.989
			c27.012,0,48.989-21.977,48.989-48.989C118.707,45.284,96.73,23.308,69.718,23.308z"/>
		<path fill="#23BFC6" d="M69.718,19.962c-28.858,0-52.336,23.477-52.336,52.337c0,28.858,23.478,52.337,52.336,52.337
			c28.86,0,52.337-23.479,52.337-52.337C122.056,43.438,98.578,19.962,69.718,19.962z M69.718,121.288
			c-27.013,0-48.989-21.977-48.989-48.989c0-27.015,21.976-48.991,48.989-48.991c27.012,0,48.989,21.977,48.989,48.991
			C118.707,99.312,96.73,121.288,69.718,121.288z"/>
	</g>
	<g>
		<g>
			<polygon fill-rule="evenodd" clip-rule="evenodd" fill="#23BFC6" points="47.364,92.016 51.848,95.846 44.542,99.274 			"/>
		</g>
		<g>
			<path fill="#23BFC6" d="M91.724,58.621l-1.167-1.084c0,0-6.639-6.153-8.756-8.149l-1.169-1.101l1.051-1.215
				c0,0,1.328-1.531,2.495-2.831c0.559-0.624,1.305-0.966,2.099-0.966c1.14,0,1.981,0.702,2.139,0.841
				c0.593,0.539,5.737,5.219,6.706,6.268c1.267,1.175,1.404,3.115,0.235,4.525c-0.235,0.363-1.495,1.628-2.493,2.6L91.724,58.621z
				 M85.271,48.053c1.885,1.761,4.775,4.445,6.383,5.938c0.508-0.516,0.93-0.958,1.044-1.11l0.114-0.156l-0.154-0.07
				c-0.636-0.689-4.02-3.809-6.273-5.858C86,47.226,85.611,47.666,85.271,48.053z"/>
		</g>
		<g>
			<path fill="#23BFC6" d="M52.588,95.411l-4.859-4.02l2.922-8.783L79.938,48.96l10.846,10.146L61.022,92.412L52.588,95.411z
				 M51.629,90.272l1.627,1.348l5.838-2.075l27.015-30.23l-5.924-5.54L53.617,84.303L51.629,90.272z"/>
		</g>
	</g>
</g>
</svg>
