<?xml version="1.0" encoding="utf-8"?>
<!-- Generator: Adobe Illustrator 15.0.0, SVG Export Plug-In . SVG Version: 6.00 Build 0)  -->
<!DOCTYPE svg PUBLIC "-//W3C//DTD SVG 1.1//EN" "http://www.w3.org/Graphics/SVG/1.1/DTD/svg11.dtd">
<svg version="1.1" id="图层_1" xmlns="http://www.w3.org/2000/svg" x="0px" y="0px"
	 width="141.73px" height="141.73px" viewBox="0 0 141.73 141.73" enable-background="new 0 0 141.73 141.73" xml:space="preserve">
<path fill="#23BFC6" d="M70.718,18.514c-28.851,0-52.322,23.473-52.322,52.325c0,28.851,23.471,52.323,52.322,52.323
	s52.322-23.473,52.322-52.323C123.04,41.986,99.569,18.514,70.718,18.514z"/>
<g>
	<g>
		<rect x="60.293" y="73.453" fill-rule="evenodd" clip-rule="evenodd" fill="#FFFFFF" width="5.01" height="9.707"/>
	</g>
	<g>
		<path fill-rule="evenodd" clip-rule="evenodd" fill="#FFFFFF" d="M71.349,58.594h5.014v-4.1c0-13.118,24.087-13.117,24.087,0v4.1
			h5.011v-4.1c0-19.742-34.112-19.742-34.112,0V58.594z"/>
	</g>
	<g>
		<path fill-rule="evenodd" clip-rule="evenodd" fill="#FFFFFF" d="M39.743,61.342v33.929h46.11V61.342H39.743L39.743,61.342z
			 M80.84,66.355v23.902H44.755V66.355H80.84z"/>
	</g>
</g>
</svg>
