<?xml version="1.0" standalone="no"?><!DOCTYPE svg PUBLIC "-//W3C//DTD SVG 1.1//EN"
    "http://www.w3.org/Graphics/SVG/1.1/DTD/svg11.dtd">
<svg class="icon" width="200px" height="200.00px" viewBox="0 0 1024 1024" version="1.1"
    xmlns="http://www.w3.org/2000/svg">
    <path
        d="M504 71.1c-139.2 0-252 112.1-252 250.3 0 138.3 112.8 250.4 251.9 250.4 139.1 0 251.9-112.1 251.9-250.4 0.1-138.2-112.7-250.3-251.8-250.3z m-98.8 142.1c-19.6 0-35.4-15.9-35.4-35.4s15.9-35.4 35.4-35.4 35.4 15.9 35.4 35.4-15.8 35.4-35.4 35.4zM441.7 594.1v337.1h124v-337c-20.2 5.2-41 7.8-61.8 7.9-21.5 0-42.2-2.9-62.2-8zM504 71.1z"
        fill="#108EE9" />
</svg>